<?xml version="1.0" encoding="iso-8859-1"?>
<!-- Generator: Adobe Illustrator 19.0.0, SVG Export Plug-In . SVG Version: 6.00 Build 0)  -->
<svg version="1.1" id="Layer_1" xmlns="http://www.w3.org/2000/svg" xmlns:xlink="http://www.w3.org/1999/xlink" x="0px" y="0px"
	 viewBox="0 0 512 512" style="enable-background:new 0 0 512 512;" xml:space="preserve">
<g>
	<circle style="fill:#4C4C4F;" cx="256" cy="123.733" r="42.667"/>
	<path style="fill:#4C4C4F;" d="M76.8,337.067H42.667C19.106,337.067,0,317.961,0,294.4V157.867
		C0,134.306,19.106,115.2,42.667,115.2h179.2c4.71,0,8.533,3.823,8.533,8.533c0,4.71-3.823,8.533-8.533,8.533h-179.2
		c-14.14,0-25.6,11.46-25.6,25.6V294.4c0,14.14,11.46,25.6,25.6,25.6H76.8c4.71,0,8.533,3.823,8.533,8.533
		S81.51,337.067,76.8,337.067z"/>
</g>
<path style="fill:#BFA380;" d="M426.667,294.4v136.533H85.333c-18.859,0-34.133-30.549-34.133-68.267S66.475,294.4,85.333,294.4
	H426.667z"/>
<g>
	<path style="fill:#6B5B4B;" d="M170.667,362.667c0,34.133,9.045,58.795,18.091,68.267h-20.821
		c-9.975-21.35-14.882-44.715-14.336-68.267c-0.546-23.552,4.361-46.916,14.336-68.267h20.821
		C179.712,303.872,170.667,328.533,170.667,362.667z"/>
	<path style="fill:#6B5B4B;" d="M290.133,362.667c0,34.133,9.045,58.795,18.091,68.267h-20.821
		c-9.975-21.35-14.882-44.715-14.336-68.267c-0.546-23.552,4.361-46.916,14.336-68.267h20.821
		C299.179,303.872,290.133,328.533,290.133,362.667z"/>
	<ellipse style="fill:#6B5B4B;" cx="426.667" cy="362.667" rx="34.133" ry="68.267"/>
</g>
<path style="fill:#4C4C4F;" d="M469.333,337.067H435.2c-4.71,0-8.533-3.823-8.533-8.533S430.49,320,435.2,320h34.133
	c14.14,0,25.6-11.46,25.6-25.6c0-4.71,3.823-8.533,8.533-8.533c4.71,0,8.533,3.823,8.533,8.533
	C512,317.961,492.894,337.067,469.333,337.067z"/>
<g>
</g>
<g>
</g>
<g>
</g>
<g>
</g>
<g>
</g>
<g>
</g>
<g>
</g>
<g>
</g>
<g>
</g>
<g>
</g>
<g>
</g>
<g>
</g>
<g>
</g>
<g>
</g>
<g>
</g>
</svg>
