<?xml version="1.0" encoding="iso-8859-1"?>
<!-- Generator: Adobe Illustrator 19.0.0, SVG Export Plug-In . SVG Version: 6.00 Build 0)  -->
<svg version="1.1" id="Layer_1" xmlns="http://www.w3.org/2000/svg" xmlns:xlink="http://www.w3.org/1999/xlink" x="0px" y="0px"
	 viewBox="0 0 512 512" style="enable-background:new 0 0 512 512;" xml:space="preserve">
<g>
	<g>
		<g>
			<path d="M102.4,119.467c-20.565,0-36.693,26.197-36.693,59.733s16.128,59.733,36.693,59.733
				c20.565,0,36.693-26.197,36.693-59.733S122.965,119.467,102.4,119.467z M102.4,221.867c-9.301,0-19.627-18.261-19.627-42.667
				s10.325-42.667,19.627-42.667s19.627,18.261,19.627,42.667S111.701,221.867,102.4,221.867z"/>
			<path d="M409.6,0H102.4C44.971,0,0,78.677,0,179.2s44.971,179.2,102.4,179.2h85.333v145.067c0,4.713,3.82,8.533,8.533,8.533
				h307.2c4.713,0,8.533-3.82,8.533-8.533V179.2C512,78.677,467.029,0,409.6,0z M187.733,341.333h-41.301
				c18.883-16.705,33.113-38.021,41.301-61.867V341.333z M102.4,341.333c-46.251,0-85.333-74.24-85.333-162.133
				S56.149,17.067,102.4,17.067s85.333,74.24,85.333,162.133S148.651,341.333,102.4,341.333z M494.933,247.467H460.8
				c-4.713,0-8.533,3.82-8.533,8.533s3.821,8.533,8.533,8.533h34.133v230.4H204.8v-230.4h34.133c4.713,0,8.533-3.82,8.533-8.533
				s-3.82-8.533-8.533-8.533H204.8V179.2c0-72.704-23.552-133.803-58.368-162.133H409.6c46.251,0,85.333,74.24,85.333,162.133
				V247.467z"/>
			<path d="M324.267,247.467H281.6c-4.713,0-8.533,3.82-8.533,8.533s3.82,8.533,8.533,8.533h42.667c4.713,0,8.533-3.82,8.533-8.533
				S328.979,247.467,324.267,247.467z"/>
			<path d="M418.133,247.467h-42.667c-4.713,0-8.533,3.82-8.533,8.533s3.82,8.533,8.533,8.533h42.667
				c4.713,0,8.533-3.82,8.533-8.533S422.846,247.467,418.133,247.467z"/>
		</g>
	</g>
</g>
<g>
</g>
<g>
</g>
<g>
</g>
<g>
</g>
<g>
</g>
<g>
</g>
<g>
</g>
<g>
</g>
<g>
</g>
<g>
</g>
<g>
</g>
<g>
</g>
<g>
</g>
<g>
</g>
<g>
</g>
</svg>
